<svg  width="174" height="64" viewBox="0 0 174 64" fill="none" xmlns="http://www.w3.org/2000/svg"><path d="M89.5699 30.8073L87.677 25.769H77.2745L75.3816 30.8073H72.1074L80.7363 8.32227H84.2152L92.8441 30.8073H89.5699ZM78.3318 22.9775H86.6367L82.4757 11.8797L78.3318 22.9775Z" fill="#FC5555"></path> <path d="M108.583 30.8083H104.985L97.3966 23.1998V30.8083H94.4976V8.32324H97.3966V21.8211L104.593 14.7573H108.328L100.364 22.536L108.583 30.8083Z" fill="#FC5555"></path> <path  d="M119.361 17.6846H114.876V26.1612C114.876 26.9271 115.047 27.4888 115.371 27.8122C115.695 28.1356 116.206 28.3059 116.871 28.3059C117.553 28.3229 118.372 28.3059 119.378 28.2548V30.6888C116.803 30.9952 114.927 30.808 113.734 30.1101C112.54 29.4122 111.943 28.0846 111.943 26.1442V17.6676H108.601V15.0633H111.943V11.4889L114.876 10.6719V15.0463H119.361V17.6846Z" fill="#FC5555"></path> <path  d="M123.13 12.0513C122.602 12.0513 122.158 11.8641 121.783 11.5066C121.425 11.1492 121.237 10.7066 121.237 10.196C121.237 9.68536 121.425 9.24281 121.783 8.86834C122.141 8.49387 122.584 8.30664 123.13 8.30664C123.642 8.30664 124.068 8.49387 124.443 8.86834C124.801 9.24281 124.989 9.68536 124.989 10.196C124.989 10.7066 124.801 11.1322 124.443 11.5066C124.068 11.8641 123.642 12.0513 123.13 12.0513ZM121.732 30.8597V14.9449H124.494V30.8597H121.732Z" fill="#FC5555"></path> <path  d="M137.029 11.0638C133.994 10.8255 132.476 12.034 132.476 14.6723V15.1489H137.029V17.8042H132.476V30.8935H129.475V17.8042H126.712V15.1489H129.475V14.6723C129.475 12.5446 130.123 10.9276 131.419 9.82121C132.715 8.71484 134.573 8.25526 137.012 8.39143V11.0638H137.029Z" fill="#FC5555"></path> <path  d="M89.1094 32.5107V35.4214H82.1518V55.6766H79.0481V35.4214H72.1245V32.5107H89.1094Z" fill="#FC5555"></path> <path  d="M91.957 41.8215C92.929 39.7619 94.7026 38.7236 97.2776 38.7236V41.7534C95.8281 41.6853 94.5661 42.0598 93.5259 42.8938C92.4857 43.7108 91.957 45.0385 91.957 46.8598V55.6938H88.9897V39.03H91.957V41.8215Z" fill="#FC5555"></path> <path  d="M121.595 38.7236C123.454 38.7236 124.954 39.3364 126.08 40.5619C127.205 41.7875 127.768 43.4385 127.768 45.5321V55.6768H125.005V45.6853C125.005 44.3406 124.647 43.3023 123.948 42.5534C123.249 41.8215 122.277 41.447 121.049 41.447C119.668 41.447 118.559 41.8896 117.707 42.7917C116.854 43.6768 116.428 45.0555 116.428 46.9108V55.6768H113.665V39.1492H116.428V41.5321C117.57 39.6598 119.293 38.7236 121.595 38.7236Z" fill="#FC5555"></path> <path  d="M132.203 43.4391C132.203 44.0518 132.527 44.5454 133.192 44.9029C133.857 45.2774 134.641 45.5837 135.545 45.8391C136.449 46.0944 137.37 46.3497 138.291 46.622C139.212 46.8773 139.996 47.371 140.627 48.0859C141.258 48.8007 141.582 49.7199 141.582 50.8433C141.582 52.3071 141.002 53.4816 139.826 54.3667C138.649 55.2518 137.148 55.6943 135.306 55.6943C133.669 55.6943 132.271 55.3539 131.111 54.656C129.952 53.9752 129.116 53.056 128.622 51.9156L131.145 50.5369C131.418 51.3029 131.913 51.9156 132.663 52.3752C133.396 52.8348 134.283 53.056 135.306 53.056C136.261 53.056 137.063 52.8858 137.694 52.5284C138.325 52.1709 138.632 51.6263 138.632 50.8773C138.632 50.2475 138.308 49.7539 137.66 49.3795C137.012 49.005 136.227 48.6816 135.323 48.4263C134.42 48.171 133.499 47.8986 132.578 47.6263C131.657 47.3539 130.873 46.8773 130.225 46.1965C129.577 45.5156 129.253 44.6305 129.253 43.5582C129.253 42.1625 129.815 41.005 130.941 40.1029C132.066 39.2008 133.482 38.7412 135.187 38.7412C136.551 38.7412 137.762 39.0306 138.836 39.6263C139.894 40.2221 140.695 41.0391 141.241 42.0944L138.785 43.422C138.188 42.0433 136.978 41.3625 135.187 41.3625C134.351 41.3625 133.652 41.5497 133.072 41.9072C132.493 42.2476 132.203 42.7752 132.203 43.4391Z" fill="#FC5555"></path> <path  d="M166.735 55.6768C164.297 55.6768 162.284 54.8597 160.664 53.2427C159.044 51.6257 158.243 49.6002 158.243 47.2002C158.243 44.8002 159.044 42.7747 160.664 41.1577C162.284 39.5407 164.297 38.7236 166.735 38.7236C168.321 38.7236 169.754 39.0981 171.033 39.8641C172.294 40.63 173.249 41.6513 173.88 42.9449L171.527 44.3066C171.118 43.4385 170.487 42.7577 169.634 42.247C168.782 41.7364 167.827 41.4811 166.752 41.4811C165.132 41.4811 163.785 42.0257 162.694 43.1321C161.602 44.2215 161.056 45.6002 161.056 47.2342C161.056 48.8513 161.602 50.1959 162.694 51.3023C163.785 52.3917 165.132 52.9534 166.752 52.9534C167.827 52.9534 168.799 52.698 169.651 52.1874C170.504 51.6768 171.169 50.9959 171.612 50.1449L174 51.5236C173.318 52.8002 172.329 53.8044 171.033 54.5704C169.737 55.3363 168.304 55.6768 166.735 55.6768Z" fill="#FC5555"></path> <path  d="M148.506 55.6762C146.766 55.6762 145.368 55.2166 144.293 54.3145C143.219 53.4124 142.69 52.2209 142.69 50.7571C142.69 49.3443 143.236 48.2209 144.345 47.3869C145.453 46.5528 147.005 46.0762 149.017 45.9741L154.014 45.7018V44.3231C154.014 43.3188 153.673 42.5358 153.008 41.9741C152.343 41.4124 151.388 41.1231 150.194 41.1231C149.085 41.1231 148.182 41.3443 147.482 41.8039C146.783 42.2635 146.34 42.8933 146.152 43.7273H143.338C143.441 42.2635 144.106 41.072 145.368 40.1188C146.613 39.1826 148.25 38.7061 150.262 38.7061C152.308 38.7061 153.946 39.1826 155.139 40.1529C156.35 41.1231 156.947 42.4167 156.947 44.0507V55.3868H154.184V52.5613H154.116C153.587 53.4975 152.82 54.2464 151.797 54.8081C150.774 55.3868 149.682 55.6762 148.506 55.6762ZM149.171 53.3443C150.552 53.3443 151.712 52.9358 152.632 52.1358C153.57 51.3358 154.031 50.3486 154.031 49.1571V47.8294L149.358 48.1018C148.182 48.1699 147.278 48.4422 146.63 48.9018C145.982 49.3613 145.658 49.9911 145.658 50.7571C145.658 51.5401 145.982 52.1528 146.613 52.6294C147.261 53.106 148.113 53.3443 149.171 53.3443Z" fill="#FC5555"></path> <path  d="M103.314 55.6762C101.575 55.6762 100.176 55.2166 99.102 54.3145C98.0277 53.4124 97.499 52.2209 97.499 50.7571C97.499 49.3443 98.0447 48.2209 99.1532 47.3869C100.262 46.5528 101.813 46.0762 103.826 45.9741L108.822 45.7018V44.3231C108.822 43.3188 108.481 42.5358 107.816 41.9741C107.151 41.4124 106.196 41.1231 105.002 41.1231C103.894 41.1231 102.99 41.3443 102.291 41.8039C101.592 42.2635 101.148 42.8933 100.961 43.7273H98.147C98.2494 42.2635 98.9144 41.072 100.176 40.1188C101.421 39.1826 103.058 38.7061 105.071 38.7061C107.117 38.7061 108.754 39.1826 109.948 40.1529C111.159 41.1231 111.755 42.4167 111.755 44.0507V55.6762H108.993V52.5783H108.925C108.396 53.5145 107.629 54.2634 106.605 54.8251C105.582 55.3868 104.491 55.6762 103.314 55.6762ZM103.962 53.3443C105.343 53.3443 106.503 52.9358 107.424 52.1358C108.362 51.3358 108.822 50.3486 108.822 49.1571V47.8294L104.15 48.1018C102.973 48.1699 102.069 48.4422 101.421 48.9018C100.773 49.3613 100.449 49.9911 100.449 50.7571C100.449 51.5401 100.773 52.1528 101.404 52.6294C102.069 53.106 102.905 53.3443 103.962 53.3443Z" fill="#FC5555"></path> <path  d="M62.7103 52.5105H49.0848C48.846 52.5105 48.6244 52.3573 48.522 52.136L31.6394 9.7872L14.7909 52.136C14.7056 52.3573 14.4839 52.5105 14.2281 52.5105H0.602651C0.398013 52.5105 0.210428 52.4083 0.10811 52.2381C-0.0112626 52.0679 -0.0283158 51.8636 0.0398969 51.6764L20.4696 0.374467C20.5549 0.153191 20.7765 0 21.0323 0H42.2806C42.5193 0 42.741 0.153191 42.8433 0.374467L63.273 51.6764C63.3412 51.8636 63.3242 52.0679 63.2048 52.2381C63.1025 52.4083 62.9149 52.5105 62.7103 52.5105Z" fill="#FC5555"></path> <path  d="M43.9861 53.2764H19.3442V63.9997H43.9861V53.2764Z" fill="#FC5555"></path></svg>