<svg xmlns="http://www.w3.org/2000/svg" viewBox="0 0 2475.76 807.35"><defs><style>.cls-1{fill:#714c6c;}.cls-2{fill:#fff;}.cls-3{fill:#e91e63;}.cls-4{fill:#ffa000;}.cls-5{fill:#00bfa5;}</style></defs><title>logo-yooz</title><g id="Calque_2" data-name="Calque 2"><g id="Colors"><g id="Logo"><path class="cls-1" d="M331,19.41q6.78,7.35,6.8,18.58V419.22q0,68.28-24.8,116.71T244.2,609.4q-44,25.07-99.2,25.07a243,243,0,0,1-62.8-7.78Q53,618.92,33.8,606,17,594.7,17,580.88a53.91,53.91,0,0,1,1.6-8.65q2.4-8.65,8-13a19.13,19.13,0,0,1,12-4.33,20,20,0,0,1,9.6,2.6q51.18,30.24,97.6,30.25,66.39,0,105.2-44.95t38.8-122.75V389.83q-20,36.3-57.6,58.35a158.56,158.56,0,0,1-81.6,22.05q-69.6,0-105.6-45T9,303.38V38q0-11.22,6.8-18.58A22.43,22.43,0,0,1,33,12.06a22.49,22.49,0,0,1,17.2,7.35Q57,26.76,57,38V295.6q0,62.25,25.2,94.23t78.8,32q32.79,0,62.8-17.73a138.29,138.29,0,0,0,48-46.68q18-28.95,18-61.81V38q0-11.22,6.8-18.58a23.8,23.8,0,0,1,34.4,0Z"/><path class="cls-1" d="M145,643.47a253.48,253.48,0,0,1-65.12-8.08c-20.34-5.42-37.54-12.81-51.12-22C15,604.19,8,593.24,8,580.88c0-1.47.22-3.78,1.84-10.69l.09-.36c2.12-7.67,5.89-13.62,11.18-17.7a28,28,0,0,1,17.49-6.19,29,29,0,0,1,13.88,3.68l.3.17c32.57,19.24,63.86,29,93,29,41.89,0,74.08-13.68,98.39-41.83s36.61-67.48,36.61-116.87v-1.15a166,166,0,0,1-44.05,37,168.13,168.13,0,0,1-86.15,23.29C101.54,479.23,63.65,463,38,430.9,12.78,399.44,0,356.54,0,303.38V38c0-9.79,3.09-18.1,9.19-24.7A31.63,31.63,0,0,1,33,3.06,31.64,31.64,0,0,1,56.8,13.28C62.91,19.91,66,28.22,66,38V295.6c0,39.24,7.83,69.07,23.27,88.66,15.14,19.22,38.6,28.56,71.73,28.56,20.14,0,39.73-5.55,58.22-16.47a130.23,130.23,0,0,0,44.94-43.69A106.74,106.74,0,0,0,280.8,295.6V38c0-9.79,3.09-18.1,9.19-24.7a32.82,32.82,0,0,1,47.61,0c6.11,6.63,9.2,14.93,9.2,24.71V419.22C346.8,466,338.12,506.6,321,540c-17.27,33.69-41.61,59.66-72.35,77.19S183.2,643.47,145,643.47ZM26,581c.07,5.93,4.38,11.8,12.81,17.44C50.75,606.53,66.12,613.1,84.52,618A235.28,235.28,0,0,0,145,625.47c35,0,66.91-8,94.75-23.89,27.64-15.76,49.6-39.23,65.24-69.76,15.8-30.86,23.81-68.75,23.81-112.6V38c0-5.18-1.44-9.26-4.41-12.48a14.83,14.83,0,0,0-21.19,0c-3,3.2-4.4,7.28-4.4,12.47V295.6c0,23.51-6.51,45.9-19.36,66.57a147.87,147.87,0,0,1-51.07,49.67c-21.29,12.59-44,19-67.37,19-38.47,0-67.36-11.92-85.87-35.42C57.13,372.56,48,339,48,295.6V38c0-5.18-1.44-9.26-4.41-12.48A13.55,13.55,0,0,0,33,21.06a13.5,13.5,0,0,0-10.59,4.46C19.44,28.72,18,32.8,18,38V303.38c0,49,11.45,88.08,34,116.27,22.41,28,54.65,41.58,98.58,41.58a150.37,150.37,0,0,0,77.05-20.81c23.53-13.8,41.78-32.28,54.27-54.93l16.88-30.64v65.24c0,53.83-13.79,97.11-41,128.63-27.55,31.9-65.23,48.07-112,48.07-32.37,0-66.69-10.57-102-31.41a11,11,0,0,0-5.19-1.44,10.25,10.25,0,0,0-6.48,2.44c-2.13,1.64-3.74,4.35-4.8,8.09A66.25,66.25,0,0,0,26,581Z"/><path class="cls-1" d="M810.6,357.85q-26.4,52.74-72.8,82.55T634.6,470.23q-56.8,0-103.2-29.83t-72.8-82.55q-26.4-52.73-26.4-117.57t26.4-117.57Q485,70,531.4,39.72T634.6,9.47q56.79,0,103.2,30.25t72.8,83Q837,175.45,837,240.28T810.6,357.85ZM769,146.92q-20-41.5-55.6-65.27a138.83,138.83,0,0,0-78.8-23.77q-43.2,0-78.4,23.77t-55.6,65.27q-20.4,41.49-20.4,93.36,0,51,20.4,92.5T556.2,398q35.2,23.79,78.4,23.78a140.7,140.7,0,0,0,78.8-23.35Q749,375.15,769,333.64t20-93.36Q789,188.41,769,146.92Z"/><path class="cls-1" d="M634.6,479.23c-39.45,0-75.81-10.52-108.06-31.26s-57.74-49.64-76-86.1c-18.14-36.24-27.35-77.15-27.35-121.59s9.21-85.34,27.35-121.6c18.25-36.43,43.79-65.53,75.94-86.5S595.14.47,634.6.47s75.83,10.67,108.12,31.71,57.69,50.08,75.93,86.5C836.8,154.94,846,195.85,846,240.28s-9.2,85.35-27.35,121.59c-18.24,36.45-43.81,65.42-76,86.1S674,479.23,634.6,479.23Zm0-460.76c-35.91,0-69,9.68-98.28,28.79s-52.87,45.94-69.67,79.48c-16.89,33.73-25.45,71.93-25.45,113.54s8.56,79.82,25.45,113.53c16.78,33.53,40.21,60.12,69.62,79s62.39,28.4,98.33,28.4,69-9.56,98.34-28.4,52.84-45.5,69.61-79C819.44,320.1,828,281.9,828,240.28s-8.56-79.81-25.45-113.54c-16.79-33.53-40.23-60.27-69.67-79.48S670.51,18.47,634.6,18.47Zm0,412.35c-30.51,0-58.58-8.52-83.44-25.32-24.66-16.65-44.39-39.78-58.63-68.75C478.38,308,471.2,275.51,471.2,240.28c0-35.81,7.18-68.56,21.33-97.34,14.23-28.95,34-52.08,58.63-68.75A146.46,146.46,0,0,1,634.6,48.88a148.37,148.37,0,0,1,83.8,25.28c25,16.7,44.74,39.86,58.71,68.85C791,171.79,798,204.51,798,240.28s-7,68.49-20.89,97.27c-14,29-33.77,52.05-58.77,68.45A150.18,150.18,0,0,1,634.6,430.82Zm0-363.94a128.76,128.76,0,0,0-73.36,22.23c-22,14.89-39.73,35.67-52.56,61.78-12.93,26.28-19.48,56.36-19.48,89.39,0,32.45,6.55,62.24,19.48,88.52,12.84,26.13,30.52,46.91,52.56,61.78a128.63,128.63,0,0,0,73.36,22.24A132.51,132.51,0,0,0,708.47,391c22.23-14.58,39.87-35.18,52.43-61.22,12.67-26.32,19.1-56.42,19.1-89.45s-6.43-63.14-19.11-89.46c-12.55-26-30.22-46.8-52.49-61.69A130.63,130.63,0,0,0,634.6,66.88Z"/><path class="cls-1" d="M1286.59,357.85q-26.4,52.74-72.8,82.55t-103.2,29.83q-56.8,0-103.2-29.83t-72.8-82.55q-26.4-52.73-26.4-117.57t26.4-117.57q26.4-52.72,72.8-83t103.2-30.25q56.79,0,103.2,30.25t72.8,83q26.4,52.74,26.4,117.57T1286.59,357.85ZM1245,146.92q-20-41.5-55.6-65.27a138.86,138.86,0,0,0-78.8-23.77q-43.2,0-78.4,23.77t-55.6,65.27q-20.4,41.49-20.4,93.36,0,51,20.4,92.5t55.6,65.26q35.19,23.79,78.4,23.78a140.72,140.72,0,0,0,78.8-23.35q35.59-23.33,55.6-64.83t20-93.36Q1265,188.41,1245,146.92Z"/><path class="cls-1" d="M1110.59,479.23c-39.45,0-75.81-10.52-108.07-31.26s-57.73-49.64-76-86.1c-18.15-36.24-27.35-77.15-27.35-121.59s9.2-85.34,27.35-121.6c18.25-36.43,43.79-65.53,75.93-86.5S1071.12.47,1110.59.47s75.83,10.67,108.12,31.71c32.14,21,57.69,50.08,75.93,86.5,18.15,36.26,27.35,77.17,27.35,121.6s-9.2,85.35-27.35,121.59c-18.24,36.45-43.81,65.42-76,86.1S1150,479.23,1110.59,479.23Zm0-460.76c-35.91,0-69,9.68-98.28,28.79s-52.88,45.94-69.67,79.48c-16.89,33.73-25.45,71.93-25.45,113.54s8.56,79.82,25.45,113.53c16.78,33.53,40.2,60.12,69.62,79s62.39,28.4,98.33,28.4,69-9.56,98.33-28.4,52.85-45.5,69.62-79C1295.43,320.1,1304,281.9,1304,240.28s-8.56-79.81-25.45-113.54c-16.79-33.53-40.23-60.27-69.67-79.48S1146.5,18.47,1110.59,18.47Zm0,412.35c-30.51,0-58.58-8.52-83.44-25.32-24.66-16.65-44.39-39.78-58.64-68.75-14.14-28.78-21.32-61.24-21.32-96.47,0-35.81,7.18-68.56,21.33-97.34,14.23-28.95,34-52.08,58.63-68.75a146.46,146.46,0,0,1,83.44-25.31,148.37,148.37,0,0,1,83.8,25.28c25,16.7,44.73,39.86,58.71,68.85,13.86,28.78,20.89,61.5,20.89,97.27s-7,68.49-20.89,97.27c-14,29-33.77,52.05-58.77,68.45A150.18,150.18,0,0,1,1110.59,430.82Zm0-363.94a128.76,128.76,0,0,0-73.36,22.23c-22,14.89-39.73,35.67-52.56,61.78-12.93,26.28-19.48,56.36-19.48,89.39,0,32.45,6.55,62.24,19.48,88.52,12.84,26.13,30.52,46.91,52.56,61.78a128.63,128.63,0,0,0,73.36,22.24A132.51,132.51,0,0,0,1184.46,391c22.23-14.58,39.87-35.18,52.42-61.22,12.68-26.32,19.11-56.42,19.11-89.45s-6.43-63.14-19.11-89.46c-12.55-26-30.22-46.8-52.49-61.69A130.63,130.63,0,0,0,1110.59,66.88Z"/><path class="cls-1" d="M1676.18,420.09c4.27,4.62,6.4,10.37,6.4,17.29s-2.13,12.68-6.4,17.29-9.87,6.91-16.8,6.91h-260a20.28,20.28,0,0,1-16.8-8.21q-6.4-8.21-6.4-16.86a30.2,30.2,0,0,1,7.2-19.88L1620.18,62.2h-200.8a22.13,22.13,0,0,1-16.4-6.92,23.66,23.66,0,0,1-6.8-17.29A23.71,23.71,0,0,1,1403,20.7a22.19,22.19,0,0,1,16.4-6.91H1665a19.89,19.89,0,0,1,16,7.78,27.69,27.69,0,0,1,6.4,18.15q0,9.53-6.4,19l-237.6,354.43h216Q1669.78,413.17,1676.18,420.09Z"/><path class="cls-1" d="M1659.38,470.58h-260a29.29,29.29,0,0,1-23.9-11.69c-5.5-7-8.3-14.57-8.3-22.38a39.06,39.06,0,0,1,9-25.25L1603.35,71.2h-184a30.9,30.9,0,0,1-22.82-9.62A32.42,32.42,0,0,1,1387.18,38a32.49,32.49,0,0,1,9.38-23.59,31.35,31.35,0,0,1,22.82-9.61H1665a29,29,0,0,1,23,11.05,36.66,36.66,0,0,1,8.45,23.88c0,8.13-2.66,16.22-7.93,24l-228.2,340.41h199.13c9.37,0,17.46,3.39,23.4,9.8s8.8,14.2,8.8,23.41-2.95,17.09-8.79,23.4C1676.77,467.28,1668.89,470.58,1659.38,470.58Zm-240-447.79a13.23,13.23,0,0,0-10,4.22,14.73,14.73,0,0,0-4.22,11,14.66,14.66,0,0,0,4.22,11,13.18,13.18,0,0,0,10,4.23H1637L1390.3,422.39a21.25,21.25,0,0,0-5.12,14.12c0,3.75,1.47,7.45,4.5,11.32a11.33,11.33,0,0,0,9.7,4.75h260c4.42,0,7.66-1.28,10.2-4,2.73-2.95,4-6.5,4-11.17s-1.27-8.22-4-11.19c-2.54-2.74-5.78-4-10.19-4H1426.52l247-368.44c3.28-4.88,4.87-9.46,4.87-14A18.84,18.84,0,0,0,1674,27.28c-2.56-3.1-5.35-4.49-9-4.49Z"/></g><g id="BaseLine"><path class="cls-1" d="M35.32,725.19q-8.37,0-13,6.3T17.76,749q0,23.4,17.56,23.4,7.36,0,17.85-3.68v12.44a49.6,49.6,0,0,1-19.24,3.59q-15.25,0-23.35-9.26T2.5,748.93a43.37,43.37,0,0,1,4-19.12,28.66,28.66,0,0,1,11.41-12.58,33.74,33.74,0,0,1,17.44-4.38,47,47,0,0,1,20.48,4.93L51,729.84a79.29,79.29,0,0,0-7.9-3.26A23.71,23.71,0,0,0,35.32,725.19Z"/><path class="cls-1" d="M85.12,783.81H70.53V709.35H85.12Z"/><path class="cls-1" d="M152.68,757q0,13.06-6.89,20.43t-19.19,7.37A26.91,26.91,0,0,1,113,781.4a22.44,22.44,0,0,1-9-9.69A32.55,32.55,0,0,1,100.81,757q0-13.11,6.84-20.39t19.24-7.27a27.06,27.06,0,0,1,13.59,3.35,22.32,22.32,0,0,1,9,9.62A32.19,32.19,0,0,1,152.68,757Zm-37,0q0,7.93,2.61,12t8.49,4.07q5.83,0,8.4-4t2.56-12q0-8-2.58-11.92t-8.47-4c-3.9,0-6.7,1.32-8.43,3.95S115.69,751.64,115.69,757Z"/><path class="cls-1" d="M206.26,783.81l-2-6.84h-.76a15.49,15.49,0,0,1-6.66,5.77,22.79,22.79,0,0,1-9.81,2q-9.42,0-14.21-5t-4.78-14.52V730.31h14.59v31.25q0,5.79,2.06,8.69t6.56,2.89q6.12,0,8.85-4.09t2.73-13.57V730.31h14.59v53.5Z"/><path class="cls-1" d="M253.34,784.77a17.37,17.37,0,0,1-14.81-7.32q-5.39-7.32-5.39-20.29,0-13.15,5.48-20.51t15.1-7.34q10.09,0,15.41,7.85h.48a59.15,59.15,0,0,1-1.1-10.67V709.35h14.64v74.46H272l-2.82-6.94h-.62Q263.53,784.78,253.34,784.77Zm5.12-11.63c3.73,0,6.47-1.08,8.2-3.25s2.69-5.86,2.85-11.06v-1.58q0-8.61-2.65-12.34t-8.64-3.73a8.58,8.58,0,0,0-7.59,4.14c-1.8,2.75-2.7,6.77-2.7,12s.91,9.21,2.73,11.84A8.9,8.9,0,0,0,258.46,773.14Z"/><path class="cls-1" d="M380.6,735.67q0,11.3-7.06,17.28t-20.07,6h-6.36v24.88H332.27v-70h22.35q12.72,0,19.35,5.48T380.6,735.67Zm-33.49,11.1H352q6.84,0,10.24-2.7c2.26-1.8,3.39-4.43,3.39-7.87s-.95-6.05-2.84-7.7S357.9,726,353.85,726h-6.74Z"/><path class="cls-1" d="M441.46,783.81H392.55V773.52l17.57-17.75q7.78-8,10.19-11.08a24.34,24.34,0,0,0,3.44-5.71,14.66,14.66,0,0,0,1.06-5.46c0-2.81-.78-4.9-2.32-6.27a9,9,0,0,0-6.2-2.06,17.9,17.9,0,0,0-7.9,1.87,40.6,40.6,0,0,0-8,5.31l-8-9.52a52,52,0,0,1,8.57-6.22,31.39,31.39,0,0,1,7.41-2.8,38.24,38.24,0,0,1,9-1,26.71,26.71,0,0,1,11.58,2.39,18.51,18.51,0,0,1,7.8,6.7,17.81,17.81,0,0,1,2.78,9.86,24.13,24.13,0,0,1-1.7,9.06,34.64,34.64,0,0,1-5.27,8.69A127.58,127.58,0,0,1,420,762.23l-9,8.47v.67h30.48Z"/><path class="cls-1" d="M505.42,735.67q0,11.3-7.05,17.28t-20.08,6h-6.36v24.88H457.09v-70h22.35q12.74,0,19.36,5.48T505.42,735.67Zm-33.49,11.1h4.88q6.84,0,10.24-2.7c2.26-1.8,3.4-4.43,3.4-7.87s-.95-6.05-2.85-7.7-4.87-2.49-8.92-2.49h-6.75Z"/><path class="cls-1" d="M594.17,783.81l-5.07-16.65H563.59l-5.07,16.65h-16l24.69-70.24h18.13l24.79,70.24Zm-8.62-29.09q-7-22.63-7.91-25.6c-.6-2-1-3.54-1.27-4.69q-1.59,6.12-9,30.29Z"/><path class="cls-1" d="M659.33,783.81l-2-6.84h-.77a15.41,15.41,0,0,1-6.65,5.77,22.79,22.79,0,0,1-9.81,2q-9.42,0-14.21-5t-4.78-14.52V730.31h14.59v31.25q0,5.79,2.06,8.69t6.55,2.89q6.14,0,8.86-4.09t2.72-13.57V730.31h14.6v53.5Z"/><path class="cls-1" d="M712,773.14a31.79,31.79,0,0,0,9.19-1.67v10.86a32.68,32.68,0,0,1-13.4,2.44q-8.74,0-12.75-4.43t-4-13.28V741.27h-7V735.1l8-4.88,4.21-11.29h9.33v11.38h15v11h-15v25.79a5.69,5.69,0,0,0,1.75,4.6A6.86,6.86,0,0,0,712,773.14Z"/><path class="cls-1" d="M784.25,757q0,13.06-6.89,20.43t-19.19,7.37a26.91,26.91,0,0,1-13.59-3.37,22.44,22.44,0,0,1-9-9.69A32.55,32.55,0,0,1,732.38,757q0-13.11,6.84-20.39t19.24-7.27a27.06,27.06,0,0,1,13.59,3.35,22.32,22.32,0,0,1,9,9.62A32.19,32.19,0,0,1,784.25,757Zm-37,0q0,7.93,2.61,12t8.49,4.07q5.83,0,8.4-4t2.56-12q0-8-2.58-11.92t-8.47-4c-3.9,0-6.7,1.32-8.43,3.95S747.26,751.64,747.26,757Z"/><path class="cls-1" d="M847.83,783.81H833.24V752.56c0-3.85-.65-6.75-1.94-8.68S828,741,825.2,741q-5.6,0-8.13,4.12t-2.54,13.54v25.17h-14.6v-53.5h11.15l2,6.85h.81a14.8,14.8,0,0,1,6.22-5.77,20.16,20.16,0,0,1,9.33-2.08q12,0,16.27,7.85H847a14.46,14.46,0,0,1,6.34-5.79,21.16,21.16,0,0,1,9.45-2.06q9.09,0,13.76,4.66t4.67,15v34.88H866.54V752.56c0-3.85-.64-6.75-1.93-8.68a6.84,6.84,0,0,0-6.11-2.9q-5.36,0-8,3.83T847.83,757Z"/><path class="cls-1" d="M933.76,783.81l-2.82-7.27h-.38A21.56,21.56,0,0,1,923,783a24.43,24.43,0,0,1-10.16,1.8q-7.71,0-12.14-4.4t-4.42-12.54q0-8.52,6-12.56t18-4.48l9.29-.28v-2.35q0-8.13-8.33-8.13-6.4,0-15.07,3.87l-4.83-9.85a43.37,43.37,0,0,1,20.48-4.84q10.75,0,16.5,4.69T944,748.16v35.65ZM929.46,759l-5.65.2c-4.24.12-7.4.89-9.47,2.29a7.21,7.21,0,0,0-3.11,6.42q0,6.17,7.08,6.17a11.21,11.21,0,0,0,8.11-2.92,10.24,10.24,0,0,0,3-7.75Z"/><path class="cls-1" d="M985.15,773.14a31.78,31.78,0,0,0,9.18-1.67v10.86a32.66,32.66,0,0,1-13.39,2.44q-8.76,0-12.76-4.43t-4-13.28V741.27h-7V735.1l8-4.88,4.21-11.29h9.33v11.38h15v11h-15v25.79a5.69,5.69,0,0,0,1.75,4.6A6.87,6.87,0,0,0,985.15,773.14Z"/><path class="cls-1" d="M1008.15,716.48q0-7.12,8-7.13t7.94,7.13a6.93,6.93,0,0,1-2,5.29c-1.32,1.26-3.31,1.89-5.95,1.89Q1008.15,723.66,1008.15,716.48Zm15.22,67.33h-14.6v-53.5h14.6Z"/><path class="cls-1" d="M1090.92,757q0,13.06-6.89,20.43t-19.18,7.37a26.91,26.91,0,0,1-13.59-3.37,22.46,22.46,0,0,1-9-9.69,32.68,32.68,0,0,1-3.16-14.74q0-13.11,6.85-20.39t19.23-7.27a27,27,0,0,1,13.59,3.35,22.34,22.34,0,0,1,9,9.62A32.31,32.31,0,0,1,1090.92,757Zm-37,0q0,7.93,2.6,12t8.5,4.07q5.84,0,8.39-4t2.57-12q0-8-2.59-11.92t-8.47-4q-5.84,0-8.42,3.95T1053.94,757Z"/><path class="cls-1" d="M1156,783.81H1141.4V752.56c0-3.85-.69-6.75-2.06-8.68s-3.56-2.9-6.56-2.9q-6.12,0-8.85,4.1c-1.82,2.72-2.73,7.25-2.73,13.56v25.17h-14.59v-53.5h11.15l2,6.85h.81a15.45,15.45,0,0,1,6.73-5.87,22.93,22.93,0,0,1,9.74-2q9.33,0,14.16,5.05t4.83,14.57Z"/><path class="cls-1" d="M1172.59,777c0-2.68.71-4.71,2.15-6.08s3.52-2.06,6.27-2.06a8.5,8.5,0,0,1,6.15,2.11,9.32,9.32,0,0,1,0,12,8.32,8.32,0,0,1-6.12,2.17,8.57,8.57,0,0,1-6.22-2.13A7.94,7.94,0,0,1,1172.59,777Z"/><path class="cls-1" d="M1305.82,783.81h-40.29v-70h40.29V726h-25.46v15.36h23.69v12.15h-23.69v18h25.46Z"/><path class="cls-1" d="M1356.87,783.81l-2.83-7.27h-.38a21.45,21.45,0,0,1-7.58,6.43,24.45,24.45,0,0,1-10.17,1.8q-7.71,0-12.13-4.4t-4.43-12.54q0-8.52,6-12.56t18-4.48l9.28-.28v-2.35q0-8.13-8.32-8.13-6.42,0-15.08,3.87l-4.83-9.85a43.4,43.4,0,0,1,20.48-4.84q10.77,0,16.51,4.69t5.74,14.26v35.65ZM1352.56,759l-5.64.2c-4.25.12-7.41.89-9.48,2.29a7.23,7.23,0,0,0-3.11,6.42q0,6.17,7.08,6.17a11.19,11.19,0,0,0,8.11-2.92,10.24,10.24,0,0,0,3-7.75Z"/><path class="cls-1" d="M1423,767.93q0,8.22-5.72,12.53t-17.11,4.31a53.37,53.37,0,0,1-10-.79,38,38,0,0,1-7.71-2.32V769.6a51.2,51.2,0,0,0,9.17,3.21,37.12,37.12,0,0,0,9,1.29q7.93,0,7.94-4.6a3.86,3.86,0,0,0-1.05-2.8,15.09,15.09,0,0,0-3.64-2.43c-1.72-.92-4-2-6.89-3.19a43.1,43.1,0,0,1-9.06-4.78,13.44,13.44,0,0,1-4.22-5,16.8,16.8,0,0,1-1.31-7,12.7,12.7,0,0,1,5.53-11q5.52-3.9,15.67-3.9a44.42,44.42,0,0,1,18.8,4.21l-4.4,10.53q-4-1.72-7.51-2.83a23.74,23.74,0,0,0-7.13-1.1q-6.47,0-6.46,3.5A4.08,4.08,0,0,0,1399,747a56.05,56.05,0,0,0,9.11,4.26,42.05,42.05,0,0,1,9.19,4.74,14.08,14.08,0,0,1,4.31,5.07A15.7,15.7,0,0,1,1423,767.93Z"/><path class="cls-1" d="M1430.39,730.31h16l10.09,30.1a41.93,41.93,0,0,1,1.77,9.29h.29a41.11,41.11,0,0,1,2.06-9.29l9.9-30.1h15.65l-22.63,60.34q-3.12,8.39-8.88,12.54a22.35,22.35,0,0,1-13.47,4.16,34.08,34.08,0,0,1-7.42-.81V795a24.73,24.73,0,0,0,5.75.62,10.37,10.37,0,0,0,6.77-2.37,15.34,15.34,0,0,0,4.52-7.15l.86-2.63Z"/><path class="cls-1" d="M1493.45,777q0-4,2.16-6.08t6.26-2.06a8.5,8.5,0,0,1,6.15,2.11,9.3,9.3,0,0,1,0,12,8.34,8.34,0,0,1-6.13,2.17,8.58,8.58,0,0,1-6.22-2.13A8,8,0,0,1,1493.45,777Z"/><path class="cls-1" d="M1634.73,735.67q0,11.3-7.06,17.28t-20.08,6h-6.36v24.88H1586.4v-70h22.34q12.73,0,19.36,5.48T1634.73,735.67Zm-33.5,11.1h4.88q6.84,0,10.24-2.7c2.27-1.8,3.4-4.43,3.4-7.87s-1-6.05-2.85-7.7S1612,726,1608,726h-6.75Z"/><path class="cls-1" d="M1699,757q0,13.06-6.89,20.43T1673,784.77a26.91,26.91,0,0,1-13.59-3.37,22.46,22.46,0,0,1-9-9.69,32.68,32.68,0,0,1-3.15-14.74q0-13.11,6.84-20.39t19.24-7.27a27.06,27.06,0,0,1,13.59,3.35,22.38,22.38,0,0,1,9,9.62A32.32,32.32,0,0,1,1699,757Zm-37,0q0,7.93,2.61,12c1.73,2.71,4.57,4.07,8.49,4.07s6.69-1.35,8.4-4,2.56-6.7,2.56-12-.86-9.27-2.59-11.92-4.54-4-8.47-4-6.7,1.32-8.42,3.95S1662,751.64,1662,757Z"/><path class="cls-1" d="M1757.73,783.81l-4.11-18.71-5.46-23.64h-.43L1738,783.81h-15.7l-15.21-53.5h14.54l6.18,23.69q1,4.21,2.91,17.56h.39a96.2,96.2,0,0,1,1.67-11.53l.77-4.07,6.6-25.65h16.08l6.27,25.65c.38,1.76.85,4.33,1.41,7.73a65.07,65.07,0,0,1,.93,7.87h.39q.52-4.26,1.48-9.69t1.63-7.87l6.41-23.69H1789l-15.41,53.5Z"/><path class="cls-1" d="M1825.48,784.77q-12.93,0-20.2-7.13T1798,757.45q0-13.46,6.72-20.8t18.59-7.34q11.34,0,17.66,6.46t6.32,17.85v7.08h-34.5q.24,6.22,3.68,9.71t9.67,3.5a40.13,40.13,0,0,0,9.14-1,46,46,0,0,0,9-3.2V781a34.44,34.44,0,0,1-8.18,2.85A51.7,51.7,0,0,1,1825.48,784.77Zm-2.06-45.08a9.23,9.23,0,0,0-7.27,2.95c-1.76,2-2.76,4.74-3,8.35h20.48q-.09-5.41-2.82-8.35A9.55,9.55,0,0,0,1823.42,739.69Z"/><path class="cls-1" d="M1892.65,729.31a23.36,23.36,0,0,1,4.93.43l-1.1,13.69a16.7,16.7,0,0,0-4.31-.48q-7,0-10.88,3.59t-3.9,10v27.23h-14.6v-53.5h11l2.16,9h.72a20,20,0,0,1,6.72-7.25A16.59,16.59,0,0,1,1892.65,729.31Z"/><path class="cls-1" d="M1940.49,741.27h-12.63v42.54h-14.6V741.27h-8v-7l8-3.93v-3.92q0-9.14,4.5-13.35t14.41-4.21a37.42,37.42,0,0,1,13.44,2.25l-3.73,10.72a27.11,27.11,0,0,0-8.14-1.39,5.24,5.24,0,0,0-4.49,1.84,7.59,7.59,0,0,0-1.39,4.71v3.35h12.63Z"/><path class="cls-1" d="M1990.39,783.81l-2-6.84h-.77a15.41,15.41,0,0,1-6.65,5.77,22.79,22.79,0,0,1-9.81,2q-9.42,0-14.21-5t-4.79-14.52V730.31h14.6v31.25c0,3.86.68,6.76,2.06,8.69s3.55,2.89,6.55,2.89q6.13,0,8.85-4.09t2.73-13.57V730.31h14.6v53.5Z"/><path class="cls-1" d="M2035.12,783.81h-14.59V709.35h14.59Z"/><path class="cls-1" d="M2052,777q0-4,2.15-6.08t6.27-2.06a8.5,8.5,0,0,1,6.15,2.11,9.3,9.3,0,0,1,0,12,8.34,8.34,0,0,1-6.13,2.17,8.58,8.58,0,0,1-6.22-2.13A7.94,7.94,0,0,1,2052,777Z"/><path class="cls-1" d="M2186.24,764.38q0,9.48-6.82,14.93t-19,5.46a44.5,44.5,0,0,1-19.81-4.21V766.78a82,82,0,0,0,12,4.45,35.53,35.53,0,0,0,9,1.29c3.25,0,5.75-.62,7.48-1.87a6.37,6.37,0,0,0,2.61-5.55,6.1,6.1,0,0,0-1.15-3.66,12.64,12.64,0,0,0-3.37-3.09,88,88,0,0,0-9.07-4.73,42.85,42.85,0,0,1-9.61-5.79,21.67,21.67,0,0,1-5.12-6.46,18.41,18.41,0,0,1-1.92-8.62q0-9.27,6.29-14.59t17.4-5.31a41.24,41.24,0,0,1,10.41,1.29,70.89,70.89,0,0,1,10.36,3.64l-4.79,11.53a70.79,70.79,0,0,0-9.26-3.21,30.1,30.1,0,0,0-7.2-.91,9.52,9.52,0,0,0-6.46,2,6.45,6.45,0,0,0-2.25,5.12,6.33,6.33,0,0,0,.91,3.42,10,10,0,0,0,2.89,2.82,91.41,91.41,0,0,0,9.41,4.91q9.81,4.68,13.44,9.4A18.3,18.3,0,0,1,2186.24,764.38Z"/><path class="cls-1" d="M2249.3,783.81h-14.6V752.56c0-3.85-.64-6.75-1.93-8.68a6.84,6.84,0,0,0-6.11-2.9q-5.6,0-8.13,4.12T2216,758.64v25.17H2201.4v-53.5h11.15l2,6.85h.81a14.86,14.86,0,0,1,6.22-5.77,20.2,20.2,0,0,1,9.34-2.08q12,0,16.26,7.85h1.3a14.41,14.41,0,0,1,6.34-5.79,21.16,21.16,0,0,1,9.45-2.06q9.09,0,13.75,4.66t4.67,15v34.88H2268V752.56c0-3.85-.65-6.75-1.94-8.68s-3.33-2.9-6.1-2.9c-3.57,0-6.25,1.28-8,3.83s-2.65,6.61-2.65,12.16Z"/><path class="cls-1" d="M2335.23,783.81l-2.82-7.27H2332a21.45,21.45,0,0,1-7.58,6.43,24.45,24.45,0,0,1-10.17,1.8q-7.71,0-12.13-4.4t-4.43-12.54q0-8.52,6-12.56t18-4.48l9.28-.28v-2.35q0-8.13-8.32-8.13-6.42,0-15.08,3.87l-4.83-9.85a43.4,43.4,0,0,1,20.48-4.84q10.77,0,16.51,4.69t5.74,14.26v35.65ZM2330.92,759l-5.64.2c-4.25.12-7.41.89-9.48,2.29a7.23,7.23,0,0,0-3.11,6.42q0,6.17,7.08,6.17a11.19,11.19,0,0,0,8.11-2.92,10.24,10.24,0,0,0,3-7.75Z"/><path class="cls-1" d="M2393.93,729.31a23.36,23.36,0,0,1,4.93.43l-1.1,13.69a16.7,16.7,0,0,0-4.31-.48q-7,0-10.88,3.59t-3.9,10v27.23h-14.6v-53.5h11.06l2.15,9h.72a20.1,20.1,0,0,1,6.72-7.25A16.59,16.59,0,0,1,2393.93,729.31Z"/><path class="cls-1" d="M2434.74,773.14a31.9,31.9,0,0,0,9.19-1.67v10.86a32.74,32.74,0,0,1-13.4,2.44q-8.76,0-12.76-4.43t-4-13.28V741.27h-7V735.1l8-4.88,4.21-11.29h9.33v11.38h15v11h-15v25.79a5.72,5.72,0,0,0,1.75,4.6A6.89,6.89,0,0,0,2434.74,773.14Z"/><path class="cls-1" d="M2456.31,777q0-4,2.15-6.08t6.27-2.06a8.5,8.5,0,0,1,6.15,2.11,9.3,9.3,0,0,1,0,12,8.34,8.34,0,0,1-6.13,2.17,8.58,8.58,0,0,1-6.22-2.13A7.94,7.94,0,0,1,2456.31,777Z"/></g><g id="Graph"><rect class="cls-2" x="1868.22" y="24.23" width="312.16" height="483.39" transform="translate(-14.72 370.32) rotate(-10.41)"/><path class="cls-3" d="M2110,34.93l76.53,416.41-248,45.58L1862,80.51l248-45.58M2134.12,0l-307,56.43,87.39,475.42,307-56.43L2134.12,0Z"/><rect class="cls-2" x="2012.91" y="161.76" width="483.39" height="326.34" transform="translate(1346.26 2413.88) rotate(-74.7)"/><path class="cls-4" d="M2182,85.6l256.9,70.28L2327.19,564.26,2070.29,494,2182,85.6m-21-36.86L2033.44,515l314.77,86.11,127.55-466.25L2161,48.74Z"/><rect class="cls-2" x="1961.74" y="159.47" width="326.34" height="483.39"/><path class="cls-5" d="M2258.08,189.47V612.86H1991.74V189.47h266.34m30-30H1961.74V642.86h326.34V159.47Z"/><path class="cls-2" d="M2193.59,398.62c.11-65.48-62.39-108-65.05-109.83l-6.19-4.13-6.2,4.11c-2.66,1.78-65.29,44.14-65.4,109.62-.08,48.8,34.74,66.63,60.15,70.61l-.05,30.55a11.16,11.16,0,0,0,22.32,0l0-30.56C2158.64,465.13,2193.51,447.42,2193.59,398.62Z"/><path class="cls-5" d="M2122.32,306.5a165.59,165.59,0,0,1,26,24.87c18.15,21.69,27.33,44.3,27.29,67.22,0,16.66-5,29.73-14.91,38.86-10.32,9.55-23.35,12.74-30.19,13.79l-8.41,1.29-8.39-1.31c-6.85-1.08-19.86-4.31-30.16-13.89-9.83-9.16-14.81-22.25-14.78-38.91,0-22.92,9.29-45.51,27.51-67.13a166,166,0,0,1,26.06-24.79m0-21.84-6.2,4.11c-2.66,1.78-65.29,44.14-65.4,109.62-.08,48.8,34.74,66.63,60.15,70.61l-.05,30.55A11.16,11.16,0,0,0,2122,510.73h0a11.16,11.16,0,0,0,11.16-11.14l0-30.56c25.42-3.9,60.29-21.61,60.37-70.41.11-65.48-62.39-108-65.05-109.83l-6.19-4.13Z"/><path class="cls-5" d="M2122.08,357.41c-6.08,0-11,4.64-11,10.39l-.14,86.24a69,69,0,0,0,11,1.19,69.9,69.9,0,0,0,11-1.15l.14-86.24C2133.07,362.09,2128.15,357.42,2122.08,357.41Z"/></g></g></g></svg>